<svg id="Layer_1" data-name="Layer 1" xmlns="http://www.w3.org/2000/svg" viewBox="0 0 237 80">
  <defs>
    <style>
      .cls-1 {
        fill: #fff;
      }

      .cls-2 {
        fill: #363636;
      }

      .cls-3 {
        fill: #787878;
      }

      .cls-4 {
        fill: #a85ee8;
      }
    </style>
  </defs>
  <rect class="cls-1" width="237" height="80" rx="20"/>
  <path class="cls-2" d="M73.648,28.2V25.878h4.338V39H75.394V28.2Zm7.6195,7.956q1.728-1.44,2.754-2.394a11.39462,11.39462,0,0,0,1.71-2.016,3.73729,3.73729,0,0,0,.684-2.052,2.19355,2.19355,0,0,0-.432-1.44,1.63,1.63,0,0,0-1.332-.522,1.66684,1.66684,0,0,0-1.386.612,2.58855,2.58855,0,0,0-.504,1.638h-2.448a4.11491,4.11491,0,0,1,4.374-4.392,4.26306,4.26306,0,0,1,3.15,1.098,3.83376,3.83376,0,0,1,1.098,2.862,5.19018,5.19018,0,0,1-.756,2.682,10.83336,10.83336,0,0,1-1.728,2.232q-.972.936-2.538,2.268h5.31V38.82h-8.892V36.948ZM101.868,39l-2.7715-4.896h-1.188V39h-2.52V26.436h4.7155a5.42657,5.42657,0,0,1,2.484.522,3.45472,3.45472,0,0,1,1.53,1.386,3.68537,3.68537,0,0,1,.522,1.944,3.78052,3.78052,0,0,1-.72,2.25,3.71688,3.71688,0,0,1-2.142,1.368L104.784,39Zm-3.9595-6.786h2.1055a2.129,2.129,0,0,0,1.53-.486,1.873,1.873,0,0,0,.504-1.386,1.72792,1.72792,0,0,0-.504-1.332,2.129,2.129,0,0,0-1.53-.486H97.9085ZM116.19,33.798a5.94717,5.94717,0,0,1-.072.972h-7.29a2.47924,2.47924,0,0,0,.756,1.692,2.33109,2.33109,0,0,0,1.638.612,2.05773,2.05773,0,0,0,1.998-1.206h2.718a4.5884,4.5884,0,0,1-1.656,2.376,4.86718,4.86718,0,0,1-3.006.918,5.31234,5.31234,0,0,1-2.592-.63,4.63687,4.63687,0,0,1-1.782-1.818,6.13929,6.13929,0,0,1,0-5.418,4.39582,4.39582,0,0,1,1.764-1.8,5.28449,5.28449,0,0,1,2.61-.63,5.19093,5.19093,0,0,1,2.538.612,4.22183,4.22183,0,0,1,1.746,1.746A5.14572,5.14572,0,0,1,116.19,33.798Zm-2.61-.72a1.971,1.971,0,0,0-.702-1.548,2.46389,2.46389,0,0,0-1.674-.594,2.29927,2.29927,0,0,0-1.584.576,2.47528,2.47528,0,0,0-.774,1.566Zm8.265,6.084a5.35249,5.35249,0,0,1-2.196-.432,4.02851,4.02851,0,0,1-1.548-1.206,3.06879,3.06879,0,0,1-.612-1.674h2.538a1.39226,1.39226,0,0,0,.558.954,2.0111,2.0111,0,0,0,1.242.378,1.87155,1.87155,0,0,0,1.116-.288.86719.86719,0,0,0,.414-.738.76129.76129,0,0,0-.504-.72,8.35986,8.35986,0,0,0-1.566-.54,13.79353,13.79353,0,0,1-1.836-.558,3.26327,3.26327,0,0,1-1.224-.882,2.395,2.395,0,0,1-.504-1.602,2.61932,2.61932,0,0,1,.468-1.512,3.27641,3.27641,0,0,1,1.368-1.08,5.1927,5.1927,0,0,1,2.106-.396,4.25331,4.25331,0,0,1,2.844.9,3.27082,3.27082,0,0,1,1.17,2.394h-2.412a1.26526,1.26526,0,0,0-.504-.936,1.771,1.771,0,0,0-1.17-.36,1.90371,1.90371,0,0,0-1.062.252.80906.80906,0,0,0-.36.702.84305.84305,0,0,0,.504.774,8.34478,8.34478,0,0,0,1.566.522,13.29268,13.29268,0,0,1,1.782.558,3.04148,3.04148,0,0,1,1.206.9,2.38217,2.38217,0,0,1,.54,1.584,2.60752,2.60752,0,0,1-.486,1.548,3.13183,3.13183,0,0,1-1.368,1.08A5.2247,5.2247,0,0,1,121.845,39.162Zm8.927-8.064v4.824a1.00863,1.00863,0,0,0,.234.738,1.26822,1.26822,0,0,0,.828.216h1.17V39H131.42q-3.186,0-3.186-3.096V31.098h-1.188v-2.07h1.188V26.562h2.538v2.466h2.232v2.07Zm3.396,2.88a5.844,5.844,0,0,1,.594-2.682,4.50379,4.50379,0,0,1,1.638-1.8,4.40744,4.40744,0,0,1,2.322-.63,4.01029,4.01029,0,0,1,1.944.45,3.94021,3.94021,0,0,1,1.35,1.134V29.028h2.538V39h-2.538V37.542a3.80809,3.80809,0,0,1-1.35,1.17,4.11624,4.11624,0,0,1-1.962.45,4.28306,4.28306,0,0,1-2.304-.648,4.63734,4.63734,0,0,1-1.638-1.818A5.99764,5.99764,0,0,1,134.168,33.978Zm7.848.036a3.18021,3.18021,0,0,0-.36-1.566,2.463,2.463,0,0,0-.972-1.008,2.60187,2.60187,0,0,0-2.61-.018,2.62258,2.62258,0,0,0-.972,1.008,3.14045,3.14045,0,0,0-.36,1.548,3.35181,3.35181,0,0,0,.36,1.584,2.76333,2.76333,0,0,0,.972,1.026,2.51612,2.51612,0,0,0,1.296.36,2.6508,2.6508,0,0,0,1.314-.342,2.61866,2.61866,0,0,0,.972-1.008A3.2852,3.2852,0,0,0,142.016,34.014Zm14.413-4.986V39h-2.538V37.74a3.3887,3.3887,0,0,1-1.278,1.026,3.9624,3.9624,0,0,1-1.692.36,4.28821,4.28821,0,0,1-2.07-.486,3.61877,3.61877,0,0,1-1.422-1.458,4.94389,4.94389,0,0,1-.504-2.304v-5.85h2.52v5.49a2.61974,2.61974,0,0,0,.594,1.836,2.11948,2.11948,0,0,0,1.62.63,2.14251,2.14251,0,0,0,1.638-.63,2.61975,2.61975,0,0,0,.594-1.836v-5.49Zm5.007,1.548a3.43945,3.43945,0,0,1,3.06-1.692V31.53h-.666a2.58734,2.58734,0,0,0-1.8.558,2.59737,2.59737,0,0,0-.594,1.944V39h-2.52V29.028h2.52Zm4.109,3.402a5.84374,5.84374,0,0,1,.594-2.682,4.50361,4.50361,0,0,1,1.638-1.8,4.40747,4.40747,0,0,1,2.322-.63,4.01029,4.01029,0,0,1,1.944.45,3.94012,3.94012,0,0,1,1.35,1.134V29.028h2.538V39h-2.538V37.542a3.80809,3.80809,0,0,1-1.35,1.17,4.11627,4.11627,0,0,1-1.962.45,4.2831,4.2831,0,0,1-2.304-.648,4.63715,4.63715,0,0,1-1.638-1.818A5.99739,5.99739,0,0,1,165.545,33.978Zm7.848.036a3.18021,3.18021,0,0,0-.36-1.566,2.4629,2.4629,0,0,0-.972-1.008,2.60187,2.60187,0,0,0-2.61-.018,2.62272,2.62272,0,0,0-.972,1.008,3.14056,3.14056,0,0,0-.36,1.548,3.35193,3.35193,0,0,0,.36,1.584,2.76349,2.76349,0,0,0,.972,1.026,2.51618,2.51618,0,0,0,1.296.36,2.65074,2.65074,0,0,0,1.314-.342,2.61859,2.61859,0,0,0,.972-1.008A3.2852,3.2852,0,0,0,173.393,34.014Zm10.525-5.13a3.82749,3.82749,0,0,1,2.88,1.134,4.27514,4.27514,0,0,1,1.098,3.132V39h-2.52V33.492a2.552,2.552,0,0,0-.594-1.818,2.08877,2.08877,0,0,0-1.62-.648,2.169,2.169,0,0,0-1.656.648,2.552,2.552,0,0,0-.594,1.818V39h-2.52V29.028h2.52V30.27a3.41662,3.41662,0,0,1,1.278-1.008A3.95963,3.95963,0,0,1,183.918,28.884Zm9.309,2.214v4.824a1.00854,1.00854,0,0,0,.234.738,1.26822,1.26822,0,0,0,.828.216h1.17V39h-1.584q-3.186,0-3.186-3.096V31.098h-1.188v-2.07h1.188V26.562h2.538v2.466h2.232v2.07Z"/>
  <path class="cls-3" d="M75.016,46.636V55H73.924V46.636Zm5.0651,1.668a2.65286,2.65286,0,0,1,1.944.732,2.77364,2.77364,0,0,1,.744,2.088V55h-1.08V51.28a2.09215,2.09215,0,0,0-.492-1.5,1.74746,1.74746,0,0,0-1.344-.528,1.81951,1.81951,0,0,0-1.38.54,2.22288,2.22288,0,0,0-.504,1.572V55h-1.092V48.424h1.092v.936a2.17707,2.17707,0,0,1,.876-.78A2.77365,2.77365,0,0,1,80.0811,48.304Zm13.527-1.668-2.724,5.208V55h-1.092V51.844l-2.736-5.208h1.212l2.064,4.236,2.064-4.236Zm4.0198,8.472a3.40036,3.40036,0,0,1-1.68-.42,3.05275,3.05275,0,0,1-1.176-1.188,3.738,3.738,0,0,1-.42-1.8,3.56088,3.56088,0,0,1,.432-1.776,3.00649,3.00649,0,0,1,1.2-1.188,3.61817,3.61817,0,0,1,3.384,0,2.94857,2.94857,0,0,1,1.1881,1.176,3.80119,3.80119,0,0,1-.012,3.588,3.08946,3.08946,0,0,1-1.2121,1.188A3.49245,3.49245,0,0,1,97.6279,55.108Zm0-.96a2.3058,2.3058,0,0,0,1.104-.276,2.06143,2.06143,0,0,0,.828-.828,2.61271,2.61271,0,0,0,.324-1.344,2.69315,2.69315,0,0,0-.312-1.344,2.0026,2.0026,0,0,0-.816-.816,2.23715,2.23715,0,0,0-1.092-.276,2.26084,2.26084,0,0,0-1.104.276,1.95128,1.95128,0,0,0-.792.816,2.78081,2.78081,0,0,0-.3,1.344,2.90526,2.90526,0,0,0,.288,1.356,2.0316,2.0316,0,0,0,.792.828A2.24778,2.24778,0,0,0,97.6279,54.148Zm10.6401-5.724V55h-1.092v-.972a2.15856,2.15856,0,0,1-.876.792,2.6983,2.6983,0,0,1-1.224.276,2.99471,2.99471,0,0,1-1.38-.312,2.38786,2.38786,0,0,1-.972-.96,3.185,3.185,0,0,1-.348-1.548V48.424h1.08v3.708a2.11851,2.11851,0,0,0,.492,1.5,1.76884,1.76884,0,0,0,1.344.516,1.79566,1.79566,0,0,0,1.38-.54,2.22288,2.22288,0,0,0,.504-1.572V48.424Zm2.936,1.068a2.10621,2.10621,0,0,1,.816-.876,2.57385,2.57385,0,0,1,1.308-.312v1.128h-.288q-1.836,0-1.836,1.992V55h-1.092V48.424h1.092Zm6.175,2.208a3.68486,3.68486,0,0,1,.408-1.776,2.93818,2.93818,0,0,1,1.128-1.188,3.291,3.291,0,0,1,1.668-.42,3.21824,3.21824,0,0,1,1.992.588,2.76474,2.76474,0,0,1,1.044,1.632h-1.176a1.67874,1.67874,0,0,0-.66-.948,1.991,1.991,0,0,0-1.2-.348,1.92612,1.92612,0,0,0-1.512.648,2.607,2.607,0,0,0-.576,1.812,2.67262,2.67262,0,0,0,.576,1.836,1.92612,1.92612,0,0,0,1.512.648,2.04226,2.04226,0,0,0,1.2-.336,1.70362,1.70362,0,0,0,.66-.96h1.176a2.92111,2.92111,0,0,1-1.056,1.62,3.1849,3.1849,0,0,1-1.98.6,3.291,3.291,0,0,1-1.668-.42,2.93818,2.93818,0,0,1-1.128-1.188A3.78258,3.78258,0,0,1,117.379,51.7Zm8.261-4.344a.744.744,0,1,1,0-1.488.66561.66561,0,0,1,.504.216.75333.75333,0,0,1,0,1.056A.66561.66561,0,0,1,125.64,47.356Zm.528,1.068V55h-1.092V48.424Zm3.193.9V53.2a.94477.94477,0,0,0,.204.684,1.02743,1.02743,0,0,0,.708.192h.804V55h-.984a1.95827,1.95827,0,0,1-1.368-.42,1.80258,1.80258,0,0,1-.456-1.38V49.324h-.852v-.9h.852V46.768h1.092v1.656h1.716v.9Zm8.704-.9-3.96,9.672h-1.128l1.296-3.168-2.652-6.504h1.212l2.064,5.328,2.04-5.328Z"/>
  <path class="cls-4" d="M40,20h0A20,20,0,0,1,60,40h0A20,20,0,0,1,40,60h0A20,20,0,0,1,20,40h0A20,20,0,0,1,40,20Z"/>
  <path class="cls-1" d="M40,30.375c-3.7954,0-6.875,2.7719-6.875,6.1875,0,5.5,6.875,13.0625,6.875,13.0625s6.875-7.5625,6.875-13.0625C46.875,33.1469,43.7954,30.375,40,30.375ZM40,40a2.75289,2.75289,0,1,1,1.9437-.8063A2.74969,2.74969,0,0,1,40,40Z"/>
</svg>
